HIERARCHY
ROOT hip
{
  OFFSET 0 0 0
  CHANNELS 6 Xposition Yposition Zposition Zrotation Yrotation Xrotation
  JOINT abdomen
  {
    OFFSET 0 20.6881 -0.73152
    CHANNELS 3 Zrotation Xrotation Yrotation
    JOINT chest
    {
      OFFSET 0 11.7043 -0.48768
      CHANNELS 3 Zrotation Xrotation Yrotation
      JOINT neck
      {
        OFFSET 0 22.1894 -2.19456
        CHANNELS 3 Zrotation Xrotation Yrotation
        JOINT head
        {
          OFFSET -0.24384 7.07133 1.2192
          CHANNELS 3 Zrotation Xrotation Yrotation
          JOINT leftEye
          {
            OFFSET 4.14528 8.04674 8.04672
            CHANNELS 3 Zrotation Xrotation Yrotation
            End Site
            {
              OFFSET 1 0 0
            }
          }
          JOINT rightEye
          {
            OFFSET -3.6576 8.04674 8.04672
            CHANNELS 3 Zrotation Xrotation Yrotation
            End Site
            {
              OFFSET 1 0 0
            }
          }
        }
      }
      JOINT rCollar
      {
        OFFSET -2.68224 19.2634 -4.8768
        CHANNELS 3 Zrotation Xrotation Yrotation
        JOINT rShldr
        {
          OFFSET -8.77824 -1.95073 1.46304
          CHANNELS 3 Zrotation Xrotation Yrotation
          JOINT rForeArm
          {
            OFFSET -28.1742 -1.7115 0.48768
            CHANNELS 3 Zrotation Xrotation Yrotation
            JOINT rHand
            {
              OFFSET -22.5879 0.773209 7.07136
              CHANNELS 3 Zrotation Xrotation Yrotation
              JOINT rThumb1
              {
                OFFSET -1.2192 -0.487915 3.41376
                CHANNELS 3 Zrotation Xrotation Yrotation
                JOINT rThumb2
                {
                  OFFSET -3.37035 -0.52449 3.41376
                  CHANNELS 3 Zrotation Xrotation Yrotation
                  End Site
                  {
                    OFFSET -1.78271 -1.18214 1.43049
                  }
                }
              }
              JOINT rIndex1
              {
                OFFSET -7.75947 0.938293 5.60832
                CHANNELS 3 Zrotation Xrotation Yrotation
                JOINT rIndex2
                {
                  OFFSET -2.54057 -0.884171 1.56538
                  CHANNELS 3 Zrotation Xrotation Yrotation
                  End Site
                  {
                    OFFSET -1.62519 -0.234802 1.16502
                  }
                }
              }
              JOINT rMid1
              {
                OFFSET -8.24714 1.18213 3.41376
                CHANNELS 3 Zrotation Xrotation Yrotation
                JOINT rMid2
                {
                  OFFSET -3.10165 -0.590103 1.0647
                  CHANNELS 3 Zrotation Xrotation Yrotation
                  End Site
                  {
                    OFFSET -2.48547 -0.328903 0.83742
                  }
                }
              }
              JOINT rRing1
              {
                OFFSET -8.82822 0.546677 1.51678
                CHANNELS 3 Zrotation Xrotation Yrotation
                JOINT rRing2
                {
                  OFFSET -2.60934 -0.819778 -0.0198488
                  CHANNELS 3 Zrotation Xrotation Yrotation
                  End Site
                  {
                    OFFSET -2.33842 -0.294052 0.168128
                  }
                }
              }
              JOINT rPinky1
              {
                OFFSET -8.27202 -0.0477905 -0.4584
                CHANNELS 3 Zrotation Xrotation Yrotation
                JOINT rPinky2
                {
                  OFFSET -1.82734 -0.647385 -0.700984
                  CHANNELS 3 Zrotation Xrotation Yrotation
                  End Site
                  {
                    OFFSET -1.69225 -0.51767 -0.607171
                  }
                }
              }
            }
          }
        }
      }
      JOINT lCollar
      {
        OFFSET 2.68224 19.2634 -4.8768
        CHANNELS 3 Zrotation Xrotation Yrotation
        JOINT lShldr
        {
          OFFSET 8.77824 -1.95073 1.46304
          CHANNELS 3 Zrotation Xrotation Yrotation
          JOINT lForeArm
          {
            OFFSET 28.1742 -1.7115 0.48768
            CHANNELS 3 Zrotation Xrotation Yrotation
            JOINT lHand
            {
              OFFSET 22.5879 0.773209 7.07136
              CHANNELS 3 Zrotation Xrotation Yrotation
              JOINT lThumb1
              {
                OFFSET 1.2192 -0.487915 3.41376
                CHANNELS 3 Zrotation Xrotation Yrotation
                JOINT lThumb2
                {
                  OFFSET 3.37035 -0.52449 3.41376
                  CHANNELS 3 Zrotation Xrotation Yrotation
                  End Site
                  {
                    OFFSET 1.78271 -1.18214 1.43049
                  }
                }
              }
              JOINT lIndex1
              {
                OFFSET 7.75947 0.938293 5.60832
                CHANNELS 3 Zrotation Xrotation Yrotation
                JOINT lIndex2
                {
                  OFFSET 2.54057 -0.884171 1.56538
                  CHANNELS 3 Zrotation Xrotation Yrotation
                  End Site
                  {
                    OFFSET 1.62519 -0.234802 1.16502
                  }
                }
              }
              JOINT lMid1
              {
                OFFSET 8.24714 1.18213 3.41376
                CHANNELS 3 Zrotation Xrotation Yrotation
                JOINT lMid2
                {
                  OFFSET 3.10165 -0.590103 1.0647
                  CHANNELS 3 Zrotation Xrotation Yrotation
                  End Site
                  {
                    OFFSET 2.48547 -0.328903 0.83742
                  }
                }
              }
              JOINT lRing1
              {
                OFFSET 8.82822 0.546677 1.51678
                CHANNELS 3 Zrotation Xrotation Yrotation
                JOINT lRing2
                {
                  OFFSET 2.60934 -0.819778 -0.0198488
                  CHANNELS 3 Zrotation Xrotation Yrotation
                  End Site
                  {
                    OFFSET 2.33842 -0.294052 0.168128
                  }
                }
              }
              JOINT lPinky1
              {
                OFFSET 8.27202 -0.0477905 -0.4584
                CHANNELS 3 Zrotation Xrotation Yrotation
                JOINT lPinky2
                {
                  OFFSET 1.82734 -0.647385 -0.700984
                  CHANNELS 3 Zrotation Xrotation Yrotation
                  End Site
                  {
                    OFFSET 1.69225 -0.51767 -0.607171
                  }
                }
              }
            }
          }
        }
      }
    }
  }
  JOINT rButtock
  {
    OFFSET -8.77824 4.35084 1.2192
    CHANNELS 3 Zrotation Xrotation Yrotation
    JOINT rThigh
    {
      OFFSET 0 -1.70687 -2.19456
      CHANNELS 3 Zrotation Xrotation Yrotation
      JOINT rShin
      {
        OFFSET 0 -36.8199 0.73152
        CHANNELS 3 Zrotation Xrotation Yrotation
        JOINT rFoot
        {
          OFFSET 0.73152 -45.1104 -5.12064
          CHANNELS 3 Zrotation Xrotation Yrotation
          End Site
          {
            OFFSET -1.1221 -3.69964 12.103
          }
        }
      }
    }
  }
  JOINT lButtock
  {
    OFFSET 8.77824 4.35084 1.2192
    CHANNELS 3 Zrotation Xrotation Yrotation
    JOINT lThigh
    {
      OFFSET 0 -1.70687 -2.19456
      CHANNELS 3 Zrotation Xrotation Yrotation
      JOINT lShin
      {
        OFFSET 0 -36.8199 0.73152
        CHANNELS 3 Zrotation Xrotation Yrotation
        JOINT lFoot
        {
          OFFSET -0.73152 -45.1104 -5.12064
          CHANNELS 3 Zrotation Xrotation Yrotation
          End Site
          {
            OFFSET 1.1221 -3.69964 12.103
          }
        }
      }
    }
  }
}
MOTION
Frames:	4
Frame Time:	0.00833333
52.5098 85.5269 139.957 0.0 0.0 0.0 2.34099 -0.00222389 0.0637208 0.646591 0.00595032 0.111937 8.49508e-14 0.0 -6.19434e-22 2.541e-13 3.18055e-15 2.32951e-17 -0.0 0.0 0.0 -0.0 0.0 0.0 4.23404e-14 -1.31035e-16 1.49089e-16 8.91235e-13 -2.59041e-15 3.77691e-15 1.53458e-11 -4.66965e-12 -1.62208e-13 1.75358e-10 4.09228e-12 2.41722e-13 4.13695e-10 -1.25686e-12 1.33583e-13 7.14419e-10 -2.16914e-12 2.15483e-13 4.13701e-10 -1.25751e-12 1.27222e-13 7.73091 5.47488 0.417314 4.13695e-10 -1.25711e-12 1.33583e-13 2.90554 0.965183 0.102902 4.13701e-10 -1.25672e-12 1.32788e-13 10.2786 0.731801 0.0259123 4.13686e-10 -1.25195e-12 1.43125e-13 2.22167 -0.733487 -0.20892 4.22452e-14 -1.30064e-16 -1.49089e-16 8.87221e-13 -2.85753e-15 1.98785e-15 1.53018e-11 4.4985e-12 -1.36764e-13 1.75394e-10 -5.09152e-12 2.25819e-13 4.13687e-10 -1.28653e-12 1.43125e-13 7.1443e-10 -2.22003e-12 2.31385e-13 4.13686e-10 -1.28574e-12 1.52667e-13 -7.73091 5.47488 -0.417314 4.13687e-10 -1.28653e-12 1.43125e-13 -2.90554 0.965183 -0.102902 4.13681e-10 -1.28643e-12 1.43125e-13 -10.2786 0.731801 -0.0259123 4.13696e-10 -1.28415e-12 1.30403e-13 -2.22167 -0.733487 0.20892 -2.03217e-16 0.0 -3.88251e-19 2.21582 -8.02969 -0.231382 0.0060696 8.97361 0.152052 -0.478034 -0.951425 0.0349009 2.03217e-16 0.0 3.88251e-19 1.35239 -1.92788 -0.00536342 0.00846417 -2.07867 0.0694388 0.423519 3.99898 -0.127239
53.6921 84.828 128.058 -178.923 2.4836 178.853 2.70508 0.804606 0.955282 0.47731 -2.51 0.412892 -1.39442 1.93226 -0.235765 2.12957 -4.11177 -0.071706 -0.0 0.0 0.0 -0.0 0.0 0.0 3.56379e-14 -6.22039e-15 3.53122e-14 22.5242 8.28469 -1.37919 -5.70503 -2.97762 8.45234 0.0690605 5.8352 0.804804 9.73762e-11 2.98132e-10 -3.7006e-11 1.67202e-10 5.11032e-10 -6.01255e-11 9.73804e-11 2.98133e-10 -3.70114e-11 7.73091 5.47488 0.417314 9.73751e-11 2.98134e-10 -3.70078e-11 2.90554 0.965183 0.102902 9.73831e-11 2.98134e-10 -3.70065e-11 10.2786 0.731801 0.0259123 9.73681e-11 2.98138e-10 -3.69964e-11 2.22167 -0.733487 -0.20892 3.55799e-14 -6.21931e-15 3.50525e-14 -22.5084 8.19773 1.83119 6.08092 -3.27281 -8.87889 -0.00417541 1.4448 -0.202827 1.72107e-10 -3.945e-10 1.47434e-11 2.96936e-10 -6.81897e-10 2.63863e-11 1.72104e-10 -3.94499e-10 1.47536e-11 -7.73091 5.47488 -0.417314 1.72108e-10 -3.94499e-10 1.4746e-11 -2.90554 0.965183 -0.102902 1.72101e-10 -3.94499e-10 1.47452e-11 -10.2786 0.731801 -0.0259123 1.72116e-10 -3.94497e-10 1.47341e-11 -2.22167 -0.733487 0.20892 -2.03217e-16 0.0 -3.88251e-19 4.18806 -7.60901 4.78774 0.0289141 12.3781 0.226039 -1.43738 -5.6647 -7.4956 2.03217e-16 0.0 3.88251e-19 0.318194 -3.5386 -5.33667 -0.0187622 4.1831 -0.118633 1.18472 -1.10348 6.1198
53.7406 84.821 128.019 -178.975 3.062 178.949 3.06406 1.65308 1.90145 0.330405 -5.16674 0.734392 -2.86011 3.97192 -0.489025 4.37302 -8.44097 -0.162043 -0.0 0.0 0.0 -0.0 0.0 0.0 2.92779e-14 -1.22829e-14 7.54636e-14 46.7831 17.0227 -2.9256 -10.7894 -5.90777 17.4573 -0.0397435 11.9933 1.68289 -2.45269e-10 6.33526e-10 -8.33941e-11 -4.25639e-10 1.08615e-09 -1.36089e-10 -2.45266e-10 6.33529e-10 -8.33985e-11 7.73091 5.47488 0.417314 -2.45271e-10 6.3353e-10 -8.33981e-11 2.90554 0.965183 0.102902 -2.45261e-10 6.3353e-10 -8.33945e-11 10.2786 0.731801 0.0259123 -2.45276e-10 6.33533e-10 -8.33846e-11 2.22167 -0.733487 -0.20892 2.92599e-14 -1.22817e-14 7.52431e-14 -46.8965 16.8596 3.88168 11.4251 -6.4759 -18.3648 0.00255788 2.9512 -0.414742 -1.01164e-10 -8.40517e-10 3.53908e-11 -1.75317e-10 -1.45275e-09 6.32016e-11 -1.01168e-10 -8.40515e-10 3.54018e-11 -7.73091 5.47488 -0.417314 -1.01163e-10 -8.40516e-10 3.53964e-11 -2.90554 0.965183 -0.102902 -1.01169e-10 -8.40515e-10 3.53946e-11 -10.2786 0.731801 -0.0259123 -1.01155e-10 -8.40513e-10 3.53853e-11 -2.22167 -0.733487 0.20892 -2.03217e-16 0.0 -3.88251e-19 6.19487 -7.10358 10.0799 0.0430699 15.9711 0.307445 -3.80902 -10.3771 -15.6535 2.03217e-16 0.0 3.88251e-19 -1.09793 -5.18156 -11.0009 -0.00221181 10.806 -0.322377 3.19271 -6.33835 12.8015
53.8043 84.7982 128.02 -179.054 3.6644 179.195 3.35792 2.41584 2.74056 0.218672 -7.54091 1.02246 -4.13535 5.7964 -0.710527 6.35721 -12.3352 -0.219635 -0.0 0.0 0.0 -0.0 0.0 0.0 2.22327e-14 -1.83991e-14 1.05639e-13 68.8712 24.7934 -4.51091 -14.553 -8.15681 25.5999 -0.304722 17.4914 2.51842 -5.35262e-10 8.96911e-10 -1.11285e-10 -9.2723e-10 1.53743e-09 -1.80807e-10 -5.35261e-10 8.96915e-10 -1.11289e-10 7.73091 5.47488 0.417314 -5.35264e-10 8.96916e-10 -1.11291e-10 2.90554 0.965183 0.102902 -5.35253e-10 8.96917e-10 -1.11285e-10 10.2786 0.731801 0.0259123 -5.35267e-10 8.96918e-10 -1.11275e-10 2.22167 -0.733487 -0.20892 2.22492e-14 -1.83978e-14 1.05456e-13 -69.2265 24.4876 5.97673 15.2913 -8.87699 -26.9411 0.0182356 4.33417 -0.610032 -3.11052e-10 -1.18093e-09 4.39438e-11 -5.38053e-10 -2.04125e-09 7.86962e-11 -3.11059e-10 -1.18092e-09 4.39555e-11 -7.73091 5.47488 -0.417314 -3.11051e-10 -1.18093e-09 4.39519e-11 -2.90554 0.965183 -0.102902 -3.11058e-10 -1.18092e-09 4.39492e-11 -10.2786 0.731801 -0.0259123 -3.11044e-10 -1.18092e-09 4.39415e-11 -2.22167 -0.733487 0.20892 -2.03217e-16 0.0 -3.88251e-19 7.90618 -6.62153 14.7956 0.0465714 19.1869 0.383261 -7.0601 -14.0576 -23.1789 2.03217e-16 0.0 3.88251e-19 -2.64018 -6.54232 -16.0762 0.0540502 16.706 -0.515495 6.02764 -10.7279 18.9534
